<svg width="138" height="25" viewBox="0 0 138 25" fill="none" xmlns="http://www.w3.org/2000/svg">
<path d="M7.65838 1.54545V19H4.49645V4.62216H4.39418L0.31179 7.23011V4.33239L4.64986 1.54545H7.65838ZM18.0774 19V5.90909H21.0263V8.13352H21.1797C21.4524 7.38352 21.9041 6.7983 22.5348 6.37784C23.1655 5.9517 23.9183 5.73864 24.7933 5.73864C25.6797 5.73864 26.4268 5.95455 27.0348 6.38636C27.6484 6.8125 28.0803 7.39489 28.3303 8.13352H28.4666C28.7564 7.40625 29.245 6.8267 29.9325 6.39489C30.6257 5.95739 31.4467 5.73864 32.3956 5.73864C33.6001 5.73864 34.5831 6.11932 35.3445 6.88068C36.1058 7.64205 36.4865 8.75284 36.4865 10.2131V19H33.3928V10.6903C33.3928 9.87784 33.1768 9.28409 32.745 8.90909C32.3132 8.52841 31.7848 8.33807 31.1598 8.33807C30.4155 8.33807 29.8331 8.57102 29.4126 9.03693C28.9979 9.49716 28.7905 10.0966 28.7905 10.8352V19H25.7649V10.5625C25.7649 9.88636 25.5604 9.34659 25.1513 8.94318C24.7479 8.53977 24.2195 8.33807 23.5661 8.33807C23.1229 8.33807 22.7195 8.4517 22.3558 8.67898C21.9922 8.90057 21.7024 9.21591 21.4865 9.625C21.2706 10.0284 21.1626 10.5 21.1626 11.0398V19H18.0774ZM45.4119 19.2557C44.0994 19.2557 42.9659 18.983 42.0114 18.4375C41.0625 17.8864 40.3324 17.108 39.821 16.1023C39.3097 15.0909 39.054 13.9006 39.054 12.5312C39.054 11.1847 39.3097 10.0028 39.821 8.9858C40.3381 7.96307 41.0597 7.16761 41.9858 6.59943C42.9119 6.02557 44 5.73864 45.25 5.73864C46.0568 5.73864 46.8182 5.86932 47.5341 6.13068C48.2557 6.38636 48.892 6.78409 49.4432 7.32386C50 7.86364 50.4375 8.55114 50.7557 9.38636C51.0739 10.2159 51.233 11.2045 51.233 12.3523V13.2983H40.5028V11.2188H48.2756C48.2699 10.6278 48.142 10.1023 47.892 9.64205C47.642 9.17614 47.2926 8.80966 46.8438 8.54261C46.4006 8.27557 45.8835 8.14205 45.2926 8.14205C44.6619 8.14205 44.108 8.29545 43.6307 8.60227C43.1534 8.90341 42.7813 9.30114 42.5142 9.79545C42.2528 10.2841 42.1193 10.821 42.1136 11.4062V13.2216C42.1136 13.983 42.2528 14.6364 42.5312 15.1818C42.8097 15.7216 43.1989 16.1364 43.6989 16.4261C44.1989 16.7102 44.7841 16.8523 45.4545 16.8523C45.9034 16.8523 46.3097 16.7898 46.6733 16.6648C47.0369 16.5341 47.3523 16.3438 47.6193 16.0938C47.8864 15.8438 48.0881 15.5341 48.2244 15.1648L51.1051 15.4886C50.9233 16.25 50.5767 16.9148 50.0653 17.483C49.5597 18.0455 48.9119 18.483 48.1222 18.7955C47.3324 19.1023 46.429 19.2557 45.4119 19.2557ZM46.8949 4.34091L45.1648 2.15909L43.4347 4.34091H40.733V4.22159L43.9631 0.539772H46.375L49.5966 4.22159V4.34091H46.8949ZM64.1896 9.36932L61.3771 9.67614C61.2976 9.39205 61.1584 9.125 60.9595 8.875C60.7663 8.625 60.505 8.4233 60.1754 8.26989C59.8459 8.11648 59.4425 8.03977 58.9652 8.03977C58.3232 8.03977 57.7834 8.17898 57.3459 8.45739C56.9141 8.7358 56.701 9.09659 56.7067 9.53977C56.701 9.92045 56.8402 10.2301 57.1243 10.4688C57.4141 10.7074 57.8913 10.9034 58.5561 11.0568L60.7891 11.5341C62.0277 11.8011 62.9482 12.2244 63.5504 12.804C64.1584 13.3835 64.4652 14.142 64.4709 15.0795C64.4652 15.9034 64.2237 16.6307 63.7464 17.2614C63.2749 17.8864 62.6186 18.375 61.7777 18.7273C60.9368 19.0795 59.9709 19.2557 58.88 19.2557C57.2777 19.2557 55.9879 18.9205 55.0107 18.25C54.0334 17.5739 53.451 16.6335 53.2635 15.429L56.272 15.1392C56.4084 15.7301 56.6982 16.1761 57.1413 16.4773C57.5845 16.7784 58.1612 16.929 58.8714 16.929C59.6044 16.929 60.1925 16.7784 60.6357 16.4773C61.0845 16.1761 61.3089 15.804 61.3089 15.3608C61.3089 14.9858 61.1641 14.6761 60.8743 14.4318C60.5902 14.1875 60.147 14 59.5447 13.8693L57.3118 13.4006C56.0561 13.1392 55.1271 12.6989 54.5249 12.0795C53.9226 11.4545 53.6243 10.6648 53.63 9.71023C53.6243 8.90341 53.843 8.20455 54.2862 7.61364C54.7351 7.01705 55.3572 6.55682 56.1527 6.23295C56.9538 5.90341 57.8771 5.73864 58.9226 5.73864C60.4567 5.73864 61.6641 6.06534 62.5447 6.71875C63.4311 7.37216 63.9794 8.25568 64.1896 9.36932ZM78.6612 24.1818C77.5533 24.1818 76.6016 24.0313 75.8061 23.7301C75.0107 23.4347 74.3714 23.0369 73.8885 22.5369C73.4055 22.0369 73.0703 21.483 72.8828 20.875L75.6612 20.2017C75.7862 20.4574 75.968 20.7102 76.2067 20.9602C76.4453 21.2159 76.7663 21.4261 77.1697 21.5909C77.5788 21.7614 78.093 21.8466 78.7124 21.8466C79.5874 21.8466 80.3118 21.6335 80.8857 21.2074C81.4595 20.7869 81.7464 20.0938 81.7464 19.1278V16.6477H81.593C81.4339 16.9659 81.201 17.2926 80.8942 17.6278C80.593 17.9631 80.1925 18.2443 79.6925 18.4716C79.1982 18.6989 78.576 18.8125 77.826 18.8125C76.8203 18.8125 75.9084 18.5767 75.0902 18.1051C74.2777 17.6278 73.63 16.9176 73.147 15.9744C72.6697 15.0256 72.4311 13.8381 72.4311 12.4119C72.4311 10.9744 72.6697 9.76136 73.147 8.77273C73.63 7.77841 74.2805 7.02557 75.0987 6.5142C75.9169 5.99716 76.8288 5.73864 77.8345 5.73864C78.6016 5.73864 79.2322 5.86932 79.7266 6.13068C80.2266 6.38636 80.6243 6.69602 80.9197 7.05966C81.2152 7.41761 81.4396 7.75568 81.593 8.07386H81.7635V5.90909H84.8061V19.2131C84.8061 20.3324 84.5391 21.2585 84.005 21.9915C83.4709 22.7244 82.7408 23.2727 81.8146 23.6364C80.8885 24 79.8374 24.1818 78.6612 24.1818ZM78.6868 16.392C79.3402 16.392 79.897 16.233 80.3572 15.9148C80.8175 15.5966 81.1669 15.1392 81.4055 14.5426C81.6442 13.946 81.7635 13.2301 81.7635 12.3949C81.7635 11.571 81.6442 10.8494 81.4055 10.2301C81.1726 9.6108 80.826 9.13068 80.3658 8.78977C79.9112 8.44318 79.3516 8.26989 78.6868 8.26989C77.9993 8.26989 77.4254 8.44886 76.9652 8.80682C76.505 9.16477 76.1584 9.65625 75.9254 10.2812C75.6925 10.9006 75.576 11.6051 75.576 12.3949C75.576 13.196 75.6925 13.8977 75.9254 14.5C76.1641 15.0966 76.5135 15.5625 76.9737 15.8977C77.4396 16.2273 78.0107 16.392 78.6868 16.392ZM87.968 19V5.90909H90.9595V8.09091H91.0959C91.3345 7.33523 91.7436 6.75284 92.3232 6.34375C92.9084 5.92898 93.576 5.72159 94.326 5.72159C94.4964 5.72159 94.6868 5.73011 94.897 5.74716C95.1129 5.75852 95.2919 5.77841 95.4339 5.80682V8.64489C95.3033 8.59943 95.0959 8.55966 94.8118 8.52557C94.5334 8.4858 94.2635 8.46591 94.0021 8.46591C93.4396 8.46591 92.9339 8.58807 92.4851 8.83239C92.0419 9.07102 91.6925 9.40341 91.4368 9.82955C91.1811 10.2557 91.0533 10.7472 91.0533 11.304V19H87.968ZM101.016 19.2642C100.187 19.2642 99.4396 19.1165 98.7749 18.821C98.1158 18.5199 97.593 18.0767 97.2067 17.4915C96.826 16.9062 96.6357 16.1847 96.6357 15.3267C96.6357 14.5881 96.772 13.9773 97.0447 13.4943C97.3175 13.0114 97.6896 12.625 98.1612 12.3352C98.6328 12.0455 99.1641 11.8267 99.755 11.679C100.352 11.5256 100.968 11.4148 101.604 11.3466C102.371 11.267 102.994 11.196 103.471 11.1335C103.948 11.0653 104.295 10.9631 104.511 10.8267C104.732 10.6847 104.843 10.4659 104.843 10.1705V10.1193C104.843 9.47727 104.653 8.98011 104.272 8.62784C103.891 8.27557 103.343 8.09943 102.627 8.09943C101.871 8.09943 101.272 8.2642 100.829 8.59375C100.391 8.9233 100.096 9.3125 99.9425 9.76136L97.0618 9.35227C97.2891 8.55682 97.6641 7.89205 98.1868 7.35795C98.7095 6.81818 99.3487 6.41477 100.104 6.14773C100.86 5.875 101.695 5.73864 102.61 5.73864C103.241 5.73864 103.869 5.8125 104.494 5.96023C105.119 6.10795 105.69 6.35227 106.207 6.69318C106.724 7.02841 107.138 7.4858 107.451 8.06534C107.769 8.64489 107.928 9.36932 107.928 10.2386V19H104.962V17.2017H104.86C104.673 17.5653 104.408 17.9062 104.067 18.2244C103.732 18.5369 103.309 18.7898 102.798 18.983C102.292 19.1705 101.698 19.2642 101.016 19.2642ZM101.817 16.9972C102.437 16.9972 102.974 16.875 103.428 16.6307C103.883 16.3807 104.232 16.0511 104.477 15.642C104.727 15.233 104.852 14.7869 104.852 14.304V12.7614C104.755 12.8409 104.59 12.9148 104.357 12.983C104.13 13.0511 103.874 13.1108 103.59 13.1619C103.306 13.2131 103.025 13.2585 102.746 13.2983C102.468 13.3381 102.227 13.3722 102.022 13.4006C101.562 13.4631 101.15 13.5653 100.786 13.7074C100.423 13.8494 100.136 14.0483 99.9254 14.304C99.7152 14.554 99.6101 14.8778 99.6101 15.2756C99.6101 15.8438 99.8175 16.2727 100.232 16.5625C100.647 16.8523 101.175 16.9972 101.817 16.9972ZM101.562 4.1875L103.471 0.292614H106.488L103.871 4.1875H101.562ZM117.567 5.90909V8.29545H110.042V5.90909H117.567ZM111.9 2.77273H114.985V15.0625C114.985 15.4773 115.048 15.7955 115.173 16.017C115.303 16.233 115.474 16.3807 115.684 16.4602C115.894 16.5398 116.127 16.5795 116.383 16.5795C116.576 16.5795 116.752 16.5653 116.911 16.5369C117.076 16.5085 117.201 16.483 117.286 16.4602L117.806 18.8722C117.641 18.929 117.406 18.9915 117.099 19.0597C116.798 19.1278 116.428 19.1676 115.991 19.179C115.218 19.2017 114.522 19.0852 113.903 18.8295C113.283 18.5682 112.792 18.1648 112.428 17.6193C112.07 17.0739 111.894 16.392 111.9 15.5739V2.77273ZM120.148 19V5.90909H123.233V19H120.148ZM121.699 4.05114C121.21 4.05114 120.79 3.8892 120.438 3.56534C120.085 3.23579 119.909 2.84091 119.909 2.38068C119.909 1.91477 120.085 1.51989 120.438 1.19602C120.79 0.866477 121.21 0.701704 121.699 0.701704C122.193 0.701704 122.614 0.866477 122.96 1.19602C123.313 1.51989 123.489 1.91477 123.489 2.38068C123.489 2.84091 123.313 3.23579 122.96 3.56534C122.614 3.8892 122.193 4.05114 121.699 4.05114ZM136.752 9.36932L133.94 9.67614C133.86 9.39205 133.721 9.125 133.522 8.875C133.329 8.625 133.067 8.4233 132.738 8.26989C132.408 8.11648 132.005 8.03977 131.528 8.03977C130.886 8.03977 130.346 8.17898 129.908 8.45739C129.477 8.7358 129.263 9.09659 129.269 9.53977C129.263 9.92045 129.403 10.2301 129.687 10.4688C129.977 10.7074 130.454 10.9034 131.119 11.0568L133.352 11.5341C134.59 11.8011 135.511 12.2244 136.113 12.804C136.721 13.3835 137.028 14.142 137.033 15.0795C137.028 15.9034 136.786 16.6307 136.309 17.2614C135.837 17.8864 135.181 18.375 134.34 18.7273C133.499 19.0795 132.533 19.2557 131.442 19.2557C129.84 19.2557 128.55 18.9205 127.573 18.25C126.596 17.5739 126.013 16.6335 125.826 15.429L128.835 15.1392C128.971 15.7301 129.261 16.1761 129.704 16.4773C130.147 16.7784 130.724 16.929 131.434 16.929C132.167 16.929 132.755 16.7784 133.198 16.4773C133.647 16.1761 133.871 15.804 133.871 15.3608C133.871 14.9858 133.727 14.6761 133.437 14.4318C133.153 14.1875 132.71 14 132.107 13.8693L129.874 13.4006C128.619 13.1392 127.69 12.6989 127.087 12.0795C126.485 11.4545 126.187 10.6648 126.192 9.71023C126.187 8.90341 126.406 8.20455 126.849 7.61364C127.298 7.01705 127.92 6.55682 128.715 6.23295C129.516 5.90341 130.44 5.73864 131.485 5.73864C133.019 5.73864 134.227 6.06534 135.107 6.71875C135.994 7.37216 136.542 8.25568 136.752 9.36932Z" fill="#1A9DBA"/>
</svg>
