<svg width="58" height="58" viewBox="0 0 58 58" fill="none" xmlns="http://www.w3.org/2000/svg">
<path d="M29 0C23.2643 0 17.6575 1.70082 12.8885 4.88738C8.11945 8.07394 4.40245 12.6031 2.20751 17.9022C0.0125653 23.2012 -0.561731 29.0322 0.55724 34.6576C1.67621 40.2831 4.43819 45.4504 8.49391 49.5061C12.5496 53.5618 17.7169 56.3238 23.3424 57.4428C28.9678 58.5617 34.7988 57.9874 40.0978 55.7925C45.3969 53.5976 49.9261 49.8806 53.1126 45.1115C56.2992 40.3425 58 34.7356 58 29C57.9915 21.3113 54.9334 13.94 49.4967 8.50332C44.06 3.06662 36.6887 0.00852875 29 0ZM29 51.5555C24.5389 51.5555 20.1781 50.2327 16.4688 47.7542C12.7596 45.2758 9.86857 41.7531 8.1614 37.6316C6.45422 33.5101 6.00754 28.975 6.87785 24.5996C7.74817 20.2243 9.89637 16.2053 13.0508 13.0508C16.2053 9.89636 20.2243 7.74815 24.5996 6.87784C28.975 6.00753 33.5102 6.45421 37.6316 8.16138C41.7531 9.86856 45.2758 12.7596 47.7543 16.4688C50.2327 20.178 51.5556 24.5389 51.5556 29C51.5492 34.9801 49.1707 40.7135 44.9421 44.9421C40.7135 49.1707 34.9801 51.5491 29 51.5555ZM42.963 29C42.963 29.8546 42.6235 30.6742 42.0192 31.2784C41.4149 31.8827 40.5953 32.2222 39.7407 32.2222H32.2222V39.7407C32.2222 40.5953 31.8827 41.4149 31.2785 42.0192C30.6742 42.6235 29.8546 42.963 29 42.963C28.1454 42.963 27.3258 42.6235 26.7215 42.0192C26.1173 41.4149 25.7778 40.5953 25.7778 39.7407V32.2222H18.2593C17.4047 32.2222 16.5851 31.8827 15.9808 31.2784C15.3765 30.6742 15.037 29.8546 15.037 29C15.037 28.1454 15.3765 27.3258 15.9808 26.7215C16.5851 26.1173 17.4047 25.7778 18.2593 25.7778H25.7778V18.2593C25.7778 17.4047 26.1173 16.5851 26.7215 15.9808C27.3258 15.3765 28.1454 15.037 29 15.037C29.8546 15.037 30.6742 15.3765 31.2785 15.9808C31.8827 16.5851 32.2222 17.4047 32.2222 18.2593V25.7778H39.7407C40.5953 25.7778 41.4149 26.1173 42.0192 26.7215C42.6235 27.3258 42.963 28.1454 42.963 29Z" fill="url(#paint0_linear_2779_2659)"/>
<defs>
<linearGradient id="paint0_linear_2779_2659" x1="14.242" y1="-10.875" x2="97.4288" y2="14.2014" gradientUnits="userSpaceOnUse">
<stop stop-color="#58C044"/>
<stop offset="0.825" stop-color="#25A3A5"/>
<stop offset="1" stop-color="#1A9DBA"/>
</linearGradient>
</defs>
</svg>
