<svg width="26" height="30" viewBox="0 0 26 30" fill="none" xmlns="http://www.w3.org/2000/svg">
<path d="M22.1 8.18182C21.0167 8.18182 20.0958 7.78409 19.3375 6.98864C18.5792 6.19318 18.2 5.22727 18.2 4.09091C18.2 2.95455 18.5792 1.98864 19.3375 1.19318C20.0958 0.397727 21.0167 0 22.1 0C23.1833 0 24.1042 0.397727 24.8625 1.19318C25.6208 1.98864 26 2.95455 26 4.09091C26 5.22727 25.6208 6.19318 24.8625 6.98864C24.1042 7.78409 23.1833 8.18182 22.1 8.18182ZM0 30V5.45455C0 4.70455 0.2548 4.06227 0.7644 3.52773C1.274 2.99318 1.88587 2.72636 2.6 2.72727H15.73C15.6433 3.18182 15.6 3.63636 15.6 4.09091C15.6 4.54545 15.6433 5 15.73 5.45455C16.0333 7.02273 16.7808 8.32409 17.9725 9.35864C19.1642 10.3932 20.54 10.91 22.1 10.9091C22.7933 10.9091 23.4758 10.7955 24.1475 10.5682C24.8192 10.3409 25.4367 10 26 9.54545V21.8182C26 22.5682 25.7452 23.2105 25.2356 23.745C24.726 24.2795 24.1141 24.5464 23.4 24.5455H5.2L0 30Z" fill="url(#paint0_linear_2779_1382)"/>
<defs>
<linearGradient id="paint0_linear_2779_1382" x1="6.38434" y1="-5.625" x2="44.4645" y2="4.3236" gradientUnits="userSpaceOnUse">
<stop stop-color="#58C044"/>
<stop offset="0.825" stop-color="#25A3A5"/>
<stop offset="1" stop-color="#1A9DBA"/>
</linearGradient>
</defs>
</svg>
