<svg width="31" height="31" viewBox="0 0 31 31" fill="none" xmlns="http://www.w3.org/2000/svg">
<path d="M7.75004 18.0834H18.0834V15.5H7.75004V18.0834ZM7.75004 14.2084H23.25V11.625H7.75004V14.2084ZM7.75004 10.3334H23.25V7.75004H7.75004V10.3334ZM2.58337 28.4167V5.16671C2.58337 4.45629 2.83654 3.84792 3.34287 3.34158C3.84921 2.83525 4.45715 2.58252 5.16671 2.58338H25.8334C26.5438 2.58338 27.1522 2.83654 27.6585 3.34288C28.1648 3.84921 28.4176 4.45715 28.4167 5.16671V20.6667C28.4167 21.3771 28.1635 21.9855 27.6572 22.4918C27.1509 22.9982 26.5429 23.2509 25.8334 23.25H7.75004L2.58337 28.4167Z" fill="white"/>
</svg>
