<svg width="25" height="27" viewBox="0 0 25 27" fill="none" xmlns="http://www.w3.org/2000/svg">
<path d="M3.83646 19.3333H21.75V9.54583C22.2132 9.44514 22.6462 9.309 23.049 9.13742C23.4517 8.96583 23.8243 8.73947 24.1667 8.45833V19.3333C24.1667 19.9979 23.9298 20.567 23.4562 21.0407C22.9825 21.5144 22.4138 21.7508 21.75 21.75H4.83333L0 26.5833V4.83333C0 4.16875 0.236833 3.59962 0.7105 3.12596C1.18417 2.65229 1.75289 2.41586 2.41667 2.41667H14.6208C14.5403 2.81944 14.5 3.22222 14.5 3.625C14.5 4.02778 14.5403 4.43056 14.6208 4.83333H2.41667V20.7531L3.83646 19.3333ZM20.5417 7.25C19.5347 7.25 18.6788 6.89757 17.974 6.19271C17.2691 5.48785 16.9167 4.63194 16.9167 3.625C16.9167 2.61806 17.2691 1.76215 17.974 1.05729C18.6788 0.352431 19.5347 0 20.5417 0C21.5486 0 22.4045 0.352431 23.1094 1.05729C23.8142 1.76215 24.1667 2.61806 24.1667 3.625C24.1667 4.63194 23.8142 5.48785 23.1094 6.19271C22.4045 6.89757 21.5486 7.25 20.5417 7.25Z" fill="white"/>
</svg>
