<svg width="26" height="26" viewBox="0 0 26 26" fill="none" xmlns="http://www.w3.org/2000/svg">
<path d="M11.375 16.2666C10.944 16.2666 10.5307 16.0952 10.226 15.7902C9.92121 15.4851 9.75 15.0714 9.75 14.64V5.01535C7.34489 5.42972 5.18236 6.73159 3.68931 8.66397C2.19626 10.5963 1.48119 13.0188 1.68527 15.4531C1.88934 17.8875 2.99772 20.1568 4.79161 21.8131C6.5855 23.4693 8.93454 24.3923 11.375 24.3996C13.6792 24.3993 15.9089 23.5824 17.6689 22.0937C19.4289 20.605 20.6055 18.5407 20.9901 16.2666H11.375ZM9.75488 3.3676C10.6438 3.24072 11.375 3.98245 11.375 4.88034V14.64H21.125C22.022 14.64 22.763 15.372 22.6362 16.2617C22.2199 19.1062 20.7443 21.6878 18.5056 23.4886C16.2668 25.2894 13.4306 26.1762 10.5659 25.9709C7.70125 25.7657 5.02008 24.4837 3.06038 22.3821C1.10068 20.2805 0.00743752 17.5148 0 14.64C0.00014388 11.9009 0.986389 9.25368 2.77799 7.18338C4.56959 5.11307 7.04653 3.75839 9.75488 3.3676ZM14.625 11.3868V1.62713C17.2109 1.62713 19.6908 2.65537 21.5193 4.48566C23.3478 6.31595 24.375 8.79835 24.375 11.3868H14.625ZM24.4757 13.0134C25.285 13.0134 25.9821 12.418 25.9984 11.608L26 11.3868C26.0001 9.87284 25.6985 8.37411 25.113 6.97823C24.5275 5.58236 23.6698 4.31738 22.59 3.2573C21.5102 2.19722 20.2301 1.36332 18.8245 0.804397C17.419 0.245471 15.9161 -0.027264 14.404 0.00214933C13.5948 0.0184154 13 0.717856 13 1.52628V11.3868C13 11.8182 13.1712 12.2319 13.476 12.537C13.7807 12.842 14.194 13.0134 14.625 13.0134H24.4757Z" fill="white"/>
</svg>
