<svg width="30" height="29" viewBox="0 0 30 29" fill="none" xmlns="http://www.w3.org/2000/svg">
<path d="M7.5 28.127C6.45833 28.127 5.57292 27.7719 4.84375 27.0617C4.11458 26.3516 3.75 25.4893 3.75 24.4748C3.75 23.4603 4.11458 22.598 4.84375 21.8878C5.57292 21.1777 6.45833 20.8226 7.5 20.8226C7.79167 20.8226 8.0625 20.853 8.3125 20.9139C8.5625 20.9748 8.80208 21.0559 9.03125 21.1574L10.8125 18.9965C10.2292 18.3675 9.82292 17.6574 9.59375 16.8661C9.36458 16.0748 9.3125 15.2835 9.4375 14.4922L6.90625 13.6704C6.55208 14.1777 6.10417 14.5835 5.5625 14.8878C5.02083 15.1922 4.41667 15.3443 3.75 15.3443C2.70833 15.3443 1.82292 14.9893 1.09375 14.2791C0.364583 13.569 0 12.7067 0 11.6922C0 10.6777 0.364583 9.81536 1.09375 9.10521C1.82292 8.39507 2.70833 8.04 3.75 8.04C4.79167 8.04 5.67708 8.39507 6.40625 9.10521C7.13542 9.81536 7.5 10.6777 7.5 11.6922V11.9356L10.0312 12.7878C10.4479 12.0574 11.0054 11.4385 11.7037 10.9313C12.4021 10.4241 13.1883 10.0994 14.0625 9.95739V7.30956C13.25 7.08637 12.5779 6.65501 12.0463 6.01547C11.5146 5.37594 11.2492 4.63049 11.25 3.77913C11.25 2.76463 11.6146 1.90232 12.3438 1.19217C13.0729 0.482026 13.9583 0.126953 15 0.126953C16.0417 0.126953 16.9271 0.482026 17.6562 1.19217C18.3854 1.90232 18.75 2.76463 18.75 3.77913C18.75 4.6313 18.4792 5.37716 17.9375 6.01669C17.3958 6.65623 16.7292 7.08718 15.9375 7.30956V9.95739C16.8125 10.0994 17.5992 10.4241 18.2975 10.9313C18.9958 11.4385 19.5529 12.0574 19.9688 12.7878L22.5 11.9356V11.6922C22.5 10.6777 22.8646 9.81536 23.5938 9.10521C24.3229 8.39507 25.2083 8.04 26.25 8.04C27.2917 8.04 28.1771 8.39507 28.9062 9.10521C29.6354 9.81536 30 10.6777 30 11.6922C30 12.7067 29.6354 13.569 28.9062 14.2791C28.1771 14.9893 27.2917 15.3443 26.25 15.3443C25.5833 15.3443 24.9738 15.1922 24.4213 14.8878C23.8688 14.5835 23.4263 14.1777 23.0938 13.6704L20.5625 14.4922C20.6875 15.2835 20.6354 16.0699 20.4062 16.8515C20.1771 17.633 19.7708 18.3481 19.1875 18.9965L20.9688 21.127C21.1979 21.0255 21.4375 20.9492 21.6875 20.8981C21.9375 20.847 22.2083 20.8218 22.5 20.8226C23.5417 20.8226 24.4271 21.1777 25.1562 21.8878C25.8854 22.598 26.25 23.4603 26.25 24.4748C26.25 25.4893 25.8854 26.3516 25.1562 27.0617C24.4271 27.7719 23.5417 28.127 22.5 28.127C21.4583 28.127 20.5729 27.7719 19.8438 27.0617C19.1146 26.3516 18.75 25.4893 18.75 24.4748C18.75 24.069 18.8179 23.6782 18.9538 23.3024C19.0896 22.9267 19.2717 22.587 19.5 22.2835L17.7188 20.1226C16.8646 20.5893 15.9529 20.8226 14.9838 20.8226C14.0146 20.8226 13.1033 20.5893 12.25 20.1226L10.5 22.2835C10.7292 22.5878 10.9117 22.9279 11.0475 23.3036C11.1833 23.6794 11.2508 24.0698 11.25 24.4748C11.25 25.4893 10.8854 26.3516 10.1562 27.0617C9.42708 27.7719 8.54167 28.127 7.5 28.127ZM3.75 12.9096C4.10417 12.9096 4.40125 12.7927 4.64125 12.559C4.88125 12.3252 5.00083 12.0363 5 11.6922C5 11.3472 4.88 11.0579 4.64 10.8242C4.4 10.5904 4.10333 10.474 3.75 10.4748C3.39583 10.4748 3.09875 10.5916 2.85875 10.8254C2.61875 11.0591 2.49917 11.3481 2.5 11.6922C2.5 12.0371 2.62 12.3264 2.86 12.5602C3.1 12.7939 3.39667 12.9104 3.75 12.9096ZM7.5 25.6922C7.85417 25.6922 8.15125 25.5753 8.39125 25.3416C8.63125 25.1078 8.75083 24.8189 8.75 24.4748C8.75 24.1299 8.63 23.8405 8.39 23.6068C8.15 23.373 7.85333 23.2566 7.5 23.2574C7.14583 23.2574 6.84875 23.3743 6.60875 23.608C6.36875 23.8417 6.24917 24.1307 6.25 24.4748C6.25 24.8197 6.37 25.109 6.61 25.3428C6.85 25.5765 7.14667 25.693 7.5 25.6922ZM15 4.99652C15.3542 4.99652 15.6513 4.87965 15.8913 4.64591C16.1313 4.41217 16.2508 4.12324 16.25 3.77913C16.25 3.4342 16.13 3.14487 15.89 2.91113C15.65 2.67739 15.3533 2.56092 15 2.56174C14.6458 2.56174 14.3487 2.67861 14.1087 2.91234C13.8687 3.14608 13.7492 3.43501 13.75 3.77913C13.75 4.12405 13.87 4.41339 14.11 4.64713C14.35 4.88087 14.6467 4.99733 15 4.99652ZM15 18.3878C15.875 18.3878 16.6146 18.0936 17.2188 17.5052C17.8229 16.9168 18.125 16.1965 18.125 15.3443C18.125 14.4922 17.8229 13.7719 17.2188 13.1835C16.6146 12.5951 15.875 12.3009 15 12.3009C14.125 12.3009 13.3854 12.5951 12.7812 13.1835C12.1771 13.7719 11.875 14.4922 11.875 15.3443C11.875 16.1965 12.1771 16.9168 12.7812 17.5052C13.3854 18.0936 14.125 18.3878 15 18.3878ZM22.5 25.6922C22.8542 25.6922 23.1512 25.5753 23.3912 25.3416C23.6312 25.1078 23.7508 24.8189 23.75 24.4748C23.75 24.1299 23.63 23.8405 23.39 23.6068C23.15 23.373 22.8533 23.2566 22.5 23.2574C22.1458 23.2574 21.8488 23.3743 21.6088 23.608C21.3688 23.8417 21.2492 24.1307 21.25 24.4748C21.25 24.8197 21.37 25.109 21.61 25.3428C21.85 25.5765 22.1467 25.693 22.5 25.6922ZM26.25 12.9096C26.6042 12.9096 26.9012 12.7927 27.1412 12.559C27.3812 12.3252 27.5008 12.0363 27.5 11.6922C27.5 11.3472 27.38 11.0579 27.14 10.8242C26.9 10.5904 26.6033 10.474 26.25 10.4748C25.8958 10.4748 25.5988 10.5916 25.3588 10.8254C25.1188 11.0591 24.9992 11.3481 25 11.6922C25 12.0371 25.12 12.3264 25.36 12.5602C25.6 12.7939 25.8967 12.9104 26.25 12.9096Z" fill="white"/>
</svg>
