<svg width="45" height="45" viewBox="0 0 45 45" fill="none" xmlns="http://www.w3.org/2000/svg">
<g id="material-symbols:location-chip-outline">
<path id="Vector" d="M22.5 30L23.4619 29.1788C24.1019 28.6325 24.7969 27.93 25.5469 27.0713C26.2969 26.2125 26.9925 25.2587 27.6338 24.21C28.2738 23.1638 28.5938 22.125 28.5938 21.0938C28.5938 19.4063 28 17.9688 26.8125 16.7813C25.625 15.5938 24.1875 15 22.5 15C20.8125 15 19.375 15.5938 18.1875 16.7813C17 17.9688 16.4063 19.4063 16.4063 21.0938C16.4063 22.125 16.7269 23.1644 17.3681 24.2119C18.0094 25.2594 18.7044 26.2119 19.4531 27.0694C20.2031 27.9294 20.8988 28.6331 21.54 29.1806L22.5 30ZM22.5 22.5C21.9688 22.5 21.5231 22.32 21.1631 21.96C20.8031 21.6 20.6238 21.155 20.625 20.625C20.625 20.0938 20.805 19.6481 21.165 19.2881C21.525 18.9281 21.97 18.7488 22.5 18.75C23.0313 18.75 23.4769 18.93 23.8369 19.29C24.1969 19.65 24.3763 20.095 24.375 20.625C24.375 21.1563 24.195 21.6019 23.835 21.9619C23.475 22.3219 23.03 22.5013 22.5 22.5ZM15 35.625C11.3438 35.625 8.24188 34.3513 5.69438 31.8038C3.14688 29.2563 1.87375 26.155 1.875 22.5C1.875 18.8438 3.14875 15.7419 5.69625 13.1944C8.24375 10.6469 11.345 9.37375 15 9.375H30C33.6563 9.375 36.7581 10.6488 39.3056 13.1963C41.8531 15.7438 43.1263 18.845 43.125 22.5C43.125 26.1563 41.8512 29.2581 39.3037 31.8056C36.7562 34.3531 33.655 35.6263 30 35.625H15ZM15 31.875H30C32.5938 31.875 34.805 30.9606 36.6338 29.1319C38.4625 27.3031 39.3763 25.0925 39.375 22.5C39.375 19.9063 38.4606 17.695 36.6319 15.8663C34.8031 14.0375 32.5925 13.1238 30 13.125H15C12.4063 13.125 10.195 14.0394 8.36625 15.8681C6.5375 17.6969 5.62375 19.9075 5.625 22.5C5.625 25.0938 6.53938 27.305 8.36813 29.1338C10.1969 30.9625 12.4075 31.8763 15 31.875Z" fill="url(#paint0_linear_2779_2513)"/>
</g>
<defs>
<linearGradient id="paint0_linear_2779_2513" x1="12.004" y1="4.45312" x2="64.7152" y2="29.4225" gradientUnits="userSpaceOnUse">
<stop stop-color="#58C044"/>
<stop offset="1" stop-color="#1A9DBA"/>
</linearGradient>
</defs>
</svg>
