<svg width="28" height="28" viewBox="0 0 28 28" fill="none" xmlns="http://www.w3.org/2000/svg">
<g id="ph:magnifying-glass-bold">
<path id="Vector" d="M25.4286 23.5715L20.2343 18.3751C21.7917 16.3456 22.5188 13.7997 22.2682 11.2538C22.0175 8.70797 20.8078 6.35278 18.8845 4.66602C16.9612 2.97926 14.4683 2.08725 11.9115 2.17092C9.35465 2.2546 6.9254 3.30771 5.11649 5.11661C3.30759 6.92552 2.25448 9.35477 2.1708 11.9116C2.08712 14.4684 2.97914 16.9613 4.6659 18.8846C6.35266 20.8079 8.70785 22.0176 11.2537 22.2683C13.7996 22.519 16.3455 21.7919 18.375 20.2345L23.5736 25.4342C23.6957 25.5562 23.8406 25.6531 24.0001 25.7192C24.1596 25.7852 24.3306 25.8192 24.5033 25.8192C24.6759 25.8192 24.8469 25.7852 25.0064 25.7192C25.1659 25.6531 25.3109 25.5562 25.4329 25.4342C25.555 25.3121 25.6519 25.1671 25.7179 25.0076C25.784 24.8481 25.818 24.6771 25.818 24.5045C25.818 24.3318 25.784 24.1608 25.7179 24.0013C25.6519 23.8418 25.555 23.6969 25.4329 23.5748L25.4286 23.5715ZM4.81247 12.2501C4.81247 10.7791 5.24867 9.34113 6.06592 8.11804C6.88316 6.89495 8.04474 5.94167 9.40376 5.37874C10.7628 4.81581 12.2582 4.66853 13.701 4.9555C15.1437 5.24248 16.4689 5.95083 17.5091 6.99099C18.5492 8.03114 19.2576 9.35638 19.5446 10.7991C19.8315 12.2418 19.6843 13.7373 19.1213 15.0963C18.5584 16.4553 17.6051 17.6169 16.382 18.4341C15.1589 19.2514 13.721 19.6876 12.25 19.6876C10.278 19.6856 8.38747 18.9013 6.9931 17.507C5.59874 16.1126 4.8145 14.222 4.81247 12.2501Z" fill="url(#paint0_linear_2779_2569)"/>
</g>
<defs>
<linearGradient id="paint0_linear_2779_2569" x1="7.97335" y1="-2.26954" x2="41.8975" y2="7.95633" gradientUnits="userSpaceOnUse">
<stop stop-color="#58C044"/>
<stop offset="1" stop-color="#1A9DBA"/>
</linearGradient>
</defs>
</svg>
