<svg width="29" height="26" viewBox="0 0 29 26" fill="none" xmlns="http://www.w3.org/2000/svg">
<path d="M22.0188 2.55027H1.29522V0H22.0188V2.55027ZM15.5945 10.2011H2.64225L3.41938 6.37567H19.8946L20.4127 8.92594C21.3711 8.97695 22.2908 9.16822 23.1715 9.51251L22.0188 3.8254H1.29522L0 10.2011V12.7513H1.29522V20.4022H12.3046C11.8772 19.3821 11.657 18.2982 11.657 17.2143V17.8519H3.88566V12.7513H11.657V17.2143C11.657 15.0976 12.4859 12.9681 14.1179 11.3487C14.5842 10.9024 15.0764 10.5199 15.5945 10.2011ZM29 24.2276L27.1996 26L23.1586 22.0853C22.2648 22.6336 21.2028 22.9524 20.0759 22.9524C16.8379 22.9524 14.2474 20.4022 14.2474 17.2143C14.2474 14.0265 16.8379 11.4762 20.0759 11.4762C23.314 11.4762 25.9044 14.0265 25.9044 17.2143C25.9044 18.3364 25.5806 19.3948 25.0107 20.2746L29 24.2276ZM23.314 17.2143C23.314 16.3689 22.9728 15.558 22.3656 14.9602C21.7583 14.3623 20.9347 14.0265 20.0759 14.0265C19.2171 14.0265 18.3935 14.3623 17.7863 14.9602C17.179 15.558 16.8379 16.3689 16.8379 17.2143C16.8379 18.0598 17.179 18.8706 17.7863 19.4685C18.3935 20.0663 19.2171 20.4022 20.0759 20.4022C20.9347 20.4022 21.7583 20.0663 22.3656 19.4685C22.9728 18.8706 23.314 18.0598 23.314 17.2143Z" fill="white"/>
</svg>
