<svg width="31" height="27" viewBox="0 0 31 27" fill="none" xmlns="http://www.w3.org/2000/svg">
<path d="M27.1666 0.375C27.9402 0.375 28.682 0.682291 29.229 1.22927C29.776 1.77625 30.0833 2.51812 30.0833 3.29167V23.7083C30.0833 24.4819 29.776 25.2237 29.229 25.7707C28.682 26.3177 27.9402 26.625 27.1666 26.625H3.83329C3.05974 26.625 2.31788 26.3177 1.7709 25.7707C1.22392 25.2237 0.916626 24.4819 0.916626 23.7083V3.29167C0.916626 2.51812 1.22392 1.77625 1.7709 1.22927C2.31788 0.682291 3.05974 0.375 3.83329 0.375H27.1666ZM22.7916 17.875H8.20829C7.82152 17.875 7.45059 18.0286 7.1771 18.3021C6.9036 18.5756 6.74996 18.9466 6.74996 19.3333C6.74996 19.7201 6.9036 20.091 7.1771 20.3645C7.45059 20.638 7.82152 20.7917 8.20829 20.7917H22.7916C23.1784 20.7917 23.5493 20.638 23.8228 20.3645C24.0963 20.091 24.25 19.7201 24.25 19.3333C24.25 18.9466 24.0963 18.5756 23.8228 18.3021C23.5493 18.0286 23.1784 17.875 22.7916 17.875ZM12.5833 6.20833H9.66663C8.93079 6.2081 8.22205 6.48601 7.68249 6.98635C7.14294 7.48669 6.81244 8.17248 6.75725 8.90625L6.74996 9.125V12.0417C6.74973 12.7775 7.02764 13.4862 7.52798 14.0258C8.02832 14.5654 8.71411 14.8959 9.44788 14.951L9.66663 14.9583H12.5833C13.3191 14.9586 14.0279 14.6807 14.5674 14.1803C15.107 13.68 15.4375 12.9942 15.4927 12.2604L15.5 12.0417V9.125C15.5002 8.38916 15.2223 7.68042 14.7219 7.14087C14.2216 6.60131 13.5358 6.27081 12.802 6.21563L12.5833 6.20833ZM22.7916 12.0417H18.4166C18.0449 12.0421 17.6874 12.1844 17.4171 12.4396C17.1468 12.6947 16.9842 13.0435 16.9624 13.4145C16.9406 13.7856 17.0614 14.151 17.2999 14.436C17.5385 14.721 17.8769 14.9042 18.246 14.9481L18.4166 14.9583H22.7916C23.1633 14.9579 23.5208 14.8156 23.7911 14.5604C24.0614 14.3053 24.2241 13.9565 24.2458 13.5855C24.2676 13.2144 24.1469 12.849 23.9083 12.564C23.6698 12.279 23.3313 12.0958 22.9622 12.0519L22.7916 12.0417ZM12.5833 9.125V12.0417H9.66663V9.125H12.5833ZM22.7916 6.20833H18.4166C18.0299 6.20833 17.6589 6.36198 17.3854 6.63547C17.1119 6.90896 16.9583 7.27989 16.9583 7.66667C16.9583 8.05344 17.1119 8.42437 17.3854 8.69786C17.6589 8.97135 18.0299 9.125 18.4166 9.125H22.7916C23.1784 9.125 23.5493 8.97135 23.8228 8.69786C24.0963 8.42437 24.25 8.05344 24.25 7.66667C24.25 7.27989 24.0963 6.90896 23.8228 6.63547C23.5493 6.36198 23.1784 6.20833 22.7916 6.20833Z" fill="white"/>
</svg>
