<svg width="88" height="99" viewBox="0 0 88 99" fill="none" xmlns="http://www.w3.org/2000/svg">
<g filter="url(#filter0_d_3320_2)">
<path d="M4 50.91C4 25.0502 28.6293 6.15732 53.7169 12.4292C71.3974 16.8494 84 32.7851 84 51.0098C84 74.8992 62.7598 93.345 39.0548 90.3819C19.1631 87.8954 4 70.9565 4 50.91Z" fill="#F5F5F5"/>
<path d="M4.5 50.91C4.5 25.3816 28.8176 6.7198 53.5957 12.9143C71.0566 17.2795 83.5 33.0176 83.5 51.0098C83.5 74.5932 62.5286 92.8122 39.1169 89.8857C19.4717 87.4301 4.5 70.7007 4.5 50.91Z" stroke="#D9D9D9"/>
</g>
<path d="M28.256 42.5455V60H25.0941V45.6222H24.9918L20.9094 48.2301V45.3324L25.2475 42.5455H28.256ZM39.1396 60.3324C37.7362 60.3324 36.5316 59.9773 35.5259 59.267C34.5259 58.5511 33.756 57.5199 33.2163 56.1733C32.6822 54.821 32.4151 53.1932 32.4151 51.2898C32.4208 49.3864 32.6907 47.767 33.2248 46.4318C33.7646 45.0909 34.5344 44.0682 35.5344 43.3636C36.5401 42.6591 37.7418 42.3068 39.1396 42.3068C40.5373 42.3068 41.739 42.6591 42.7447 43.3636C43.7504 44.0682 44.5202 45.0909 45.0543 46.4318C45.5941 47.7727 45.864 49.392 45.864 51.2898C45.864 53.1989 45.5941 54.8295 45.0543 56.1818C44.5202 57.5284 43.7504 58.5568 42.7447 59.267C41.7447 59.9773 40.543 60.3324 39.1396 60.3324ZM39.1396 57.6648C40.2305 57.6648 41.0913 57.1278 41.7219 56.054C42.3583 54.9744 42.6765 53.3864 42.6765 51.2898C42.6765 49.9034 42.5316 48.7386 42.2418 47.7955C41.9521 46.8523 41.543 46.142 41.0146 45.6648C40.4862 45.1818 39.8612 44.9403 39.1396 44.9403C38.0543 44.9403 37.1964 45.4801 36.5657 46.5597C35.935 47.6335 35.6168 49.2102 35.6112 51.2898C35.6055 52.6818 35.7447 53.8523 36.0288 54.8011C36.3185 55.75 36.7276 56.4659 37.256 56.9489C37.7844 57.4261 38.4123 57.6648 39.1396 57.6648ZM58.0281 56.7273V55.8068C58.0281 55.1307 58.1701 54.5085 58.4542 53.9403C58.744 53.3722 59.1644 52.9148 59.7156 52.5682C60.2667 52.2216 60.9343 52.0483 61.7184 52.0483C62.5252 52.0483 63.2014 52.2216 63.7468 52.5682C64.2923 52.9091 64.7042 53.3636 64.9826 53.9318C65.2667 54.5 65.4087 55.125 65.4087 55.8068V56.7273C65.4087 57.4034 65.2667 58.0256 64.9826 58.5938C64.6985 59.1619 64.2809 59.6193 63.7298 59.9659C63.1843 60.3125 62.5138 60.4858 61.7184 60.4858C60.9229 60.4858 60.2496 60.3125 59.6985 59.9659C59.1474 59.6193 58.7298 59.1619 58.4457 58.5938C58.1673 58.0256 58.0281 57.4034 58.0281 56.7273ZM60.2525 55.8068V56.7273C60.2525 57.1761 60.3604 57.5881 60.5764 57.9631C60.7923 58.3381 61.1729 58.5256 61.7184 58.5256C62.2695 58.5256 62.6474 58.3409 62.8519 57.9716C63.0621 57.5966 63.1673 57.1818 63.1673 56.7273V55.8068C63.1673 55.3523 63.0678 54.9375 62.869 54.5625C62.6701 54.1818 62.2866 53.9915 61.7184 53.9915C61.1843 53.9915 60.8065 54.1818 60.5849 54.5625C60.3633 54.9375 60.2525 55.3523 60.2525 55.8068ZM49.1559 46.7386V45.8182C49.1559 45.1364 49.3008 44.5114 49.5906 43.9432C49.8803 43.375 50.3008 42.9205 50.8519 42.5795C51.4031 42.233 52.0707 42.0597 52.8548 42.0597C53.6559 42.0597 54.3292 42.233 54.8746 42.5795C55.4258 42.9205 55.8406 43.375 56.119 43.9432C56.3974 44.5114 56.5366 45.1364 56.5366 45.8182V46.7386C56.5366 47.4205 56.3945 48.0455 56.1104 48.6136C55.832 49.1761 55.4173 49.6278 54.8661 49.9688C54.315 50.3097 53.6445 50.4801 52.8548 50.4801C52.0536 50.4801 51.3775 50.3097 50.8263 49.9688C50.2809 49.6278 49.8661 49.1733 49.582 48.6051C49.2979 48.0369 49.1559 47.4148 49.1559 46.7386ZM51.3974 45.8182V46.7386C51.3974 47.1932 51.5025 47.608 51.7127 47.983C51.9286 48.3523 52.3093 48.5369 52.8548 48.5369C53.4002 48.5369 53.7752 48.3523 53.9798 47.983C54.19 47.608 54.2951 47.1932 54.2951 46.7386V45.8182C54.2951 45.3636 54.1957 44.9489 53.9968 44.5739C53.7979 44.1932 53.4173 44.0028 52.8548 44.0028C52.315 44.0028 51.9371 44.1932 51.7212 44.5739C51.5053 44.9545 51.3974 45.3693 51.3974 45.8182ZM50.1275 60L62.1275 42.5455H64.2582L52.2582 60H50.1275Z" fill="#1A9DBA"/>
<defs>
<filter id="filter0_d_3320_2" x="0" y="11.219" width="88" height="87.4761" filterUnits="userSpaceOnUse" color-interpolation-filters="sRGB">
<feFlood flood-opacity="0" result="BackgroundImageFix"/>
<feColorMatrix in="SourceAlpha" type="matrix" values="0 0 0 0 0 0 0 0 0 0 0 0 0 0 0 0 0 0 127 0" result="hardAlpha"/>
<feOffset dy="4"/>
<feGaussianBlur stdDeviation="2"/>
<feComposite in2="hardAlpha" operator="out"/>
<feColorMatrix type="matrix" values="0 0 0 0 0 0 0 0 0 0 0 0 0 0 0 0 0 0 0.25 0"/>
<feBlend mode="normal" in2="BackgroundImageFix" result="effect1_dropShadow_3320_2"/>
<feBlend mode="normal" in="SourceGraphic" in2="effect1_dropShadow_3320_2" result="shape"/>
</filter>
</defs>
</svg>
