<svg width="33" height="33" viewBox="0 0 33 33" fill="none" xmlns="http://www.w3.org/2000/svg">
<path d="M26.8125 4.125H6.1875C5.64049 4.125 5.11589 4.3423 4.72909 4.72909C4.3423 5.11589 4.125 5.64049 4.125 6.1875V26.8125C4.125 27.3595 4.3423 27.8841 4.72909 28.2709C5.11589 28.6577 5.64049 28.875 6.1875 28.875H26.8125C27.3595 28.875 27.8841 28.6577 28.2709 28.2709C28.6577 27.8841 28.875 27.3595 28.875 26.8125V6.1875C28.875 5.64049 28.6577 5.11589 28.2709 4.72909C27.8841 4.3423 27.3595 4.125 26.8125 4.125ZM23.7188 17.5312H17.5312V23.7188C17.5312 23.9923 17.4226 24.2546 17.2292 24.448C17.0358 24.6414 16.7735 24.75 16.5 24.75C16.2265 24.75 15.9642 24.6414 15.7708 24.448C15.5774 24.2546 15.4688 23.9923 15.4688 23.7188V17.5312H9.28125C9.00775 17.5312 8.74544 17.4226 8.55205 17.2292C8.35865 17.0358 8.25 16.7735 8.25 16.5C8.25 16.2265 8.35865 15.9642 8.55205 15.7708C8.74544 15.5774 9.00775 15.4688 9.28125 15.4688H15.4688V9.28125C15.4688 9.00775 15.5774 8.74544 15.7708 8.55205C15.9642 8.35865 16.2265 8.25 16.5 8.25C16.7735 8.25 17.0358 8.35865 17.2292 8.55205C17.4226 8.74544 17.5312 9.00775 17.5312 9.28125V15.4688H23.7188C23.9923 15.4688 24.2546 15.5774 24.448 15.7708C24.6414 15.9642 24.75 16.2265 24.75 16.5C24.75 16.7735 24.6414 17.0358 24.448 17.2292C24.2546 17.4226 23.9923 17.5312 23.7188 17.5312Z" fill="white"/>
</svg>
