<svg width="28" height="31" viewBox="0 0 28 31" fill="none" xmlns="http://www.w3.org/2000/svg">
<path d="M28 25.0952V26.5714H0V25.0952L3.11111 22.1429V13.2857C3.11111 8.70952 6.26889 4.67952 10.8889 3.38048V2.95238C10.8889 2.16936 11.2167 1.41841 11.8001 0.864732C12.3836 0.311053 13.1749 0 14 0C14.8251 0 15.6164 0.311053 16.1999 0.864732C16.7833 1.41841 17.1111 2.16936 17.1111 2.95238V3.38048C21.7311 4.67952 24.8889 8.70952 24.8889 13.2857V22.1429L28 25.0952ZM17.1111 28.0476C17.1111 28.8306 16.7833 29.5816 16.1999 30.1353C15.6164 30.6889 14.8251 31 14 31C13.1749 31 12.3836 30.6889 11.8001 30.1353C11.2167 29.5816 10.8889 28.8306 10.8889 28.0476" fill="#1A9DBA"/>
</svg>
